<svg width="162" height="64" viewBox="0 0 162 64" fill="none" xmlns="http://www.w3.org/2000/svg">
<path d="M47.1752 44.7059C47.2174 44.6546 47.2627 44.6033 47.3057 44.5506C47.476 44.3455 47.6396 44.1352 47.8002 43.9226C47.85 43.8578 47.8989 43.7899 47.9509 43.7236C48.0851 43.5422 48.216 43.3587 48.3437 43.1733C48.3761 43.1243 48.4116 43.0768 48.444 43.027C48.5948 42.8004 48.7422 42.5707 48.8865 42.338C48.9257 42.2755 48.9618 42.2114 49.0003 42.1488C49.0493 42.0659 49.1006 41.986 49.1511 41.9038H49.1428C51.3457 38.0983 52.2186 33.6677 51.6239 29.3111C51.0292 24.9544 49.0008 20.9198 45.8587 17.8439C42.7165 14.768 38.6396 12.8259 34.2712 12.3242C29.9028 11.8224 25.4917 12.7895 21.734 15.0728C21.4988 15.2153 21.2674 15.3653 21.0382 15.5191L20.8746 15.6276L20.8113 15.6736C20.5964 15.8244 20.3846 15.9714 20.1757 16.1259L20.1169 16.1719C20.077 16.2021 20.0371 16.233 19.9986 16.2631L19.8411 16.3845C19.7295 16.4712 19.6209 16.5594 19.5116 16.6483L19.3367 16.7908C19.2492 16.8662 19.1603 16.9416 19.0736 17.017C19.0208 17.0622 18.9696 17.1067 18.9183 17.1534C18.8505 17.2122 18.7833 17.271 18.717 17.3313C18.6883 17.3562 18.6605 17.3841 18.6319 17.4067C18.4811 17.5432 18.3364 17.6819 18.1916 17.8221L18.0717 17.9412C18.0295 17.9834 17.9858 18.0264 17.9428 18.0701C17.7513 18.2638 17.5658 18.4606 17.3781 18.6619L17.3382 18.7056C17.3028 18.744 17.2696 18.781 17.2357 18.8232C17.0917 18.983 16.9514 19.1474 16.8127 19.3124L16.6778 19.4738C16.6432 19.516 16.6078 19.5575 16.5738 19.6004C16.5399 19.6434 16.5127 19.6758 16.4811 19.7195C16.3763 19.8507 16.2723 19.9849 16.1705 20.1198C16.1381 20.1635 16.1057 20.2073 16.0725 20.2525C16.0016 20.349 15.93 20.4455 15.8599 20.5427C15.8366 20.5751 15.8139 20.6076 15.7913 20.64C15.7475 20.7025 15.7046 20.7674 15.6609 20.8299L15.5485 20.9935C15.4385 21.1586 15.3307 21.3252 15.2244 21.4926C15.2018 21.5288 15.1784 21.568 15.1558 21.6011L15.103 21.6878C15.0714 21.7376 15.0427 21.7904 15.0118 21.8386C14.889 22.0414 14.7713 22.2479 14.6567 22.4568C14.6341 22.4952 14.6115 22.5321 14.5904 22.5721L14.5504 22.6475C14.4253 22.8804 14.3055 23.1179 14.1878 23.3569C14.1607 23.4134 14.1343 23.4707 14.1064 23.528L14.0913 23.5604C14.0649 23.6177 14.0364 23.6742 14.01 23.7315C13.9414 23.8823 13.8735 24.0331 13.8071 24.1883C13.7853 24.2381 13.7634 24.2886 13.7423 24.3391C13.697 24.4469 13.6534 24.5555 13.6097 24.6655C13.5863 24.7258 13.5606 24.7869 13.5342 24.848C13.4995 24.9377 13.4641 25.0296 13.4302 25.1194C13.4076 25.1819 13.385 25.243 13.3639 25.3056C13.3036 25.4722 13.2448 25.6395 13.1898 25.8084C13.1687 25.8709 13.1483 25.932 13.1287 25.9946L13.1234 26.0134C13.1083 26.0571 13.0933 26.1024 13.0797 26.1461C12.996 26.4175 12.9183 26.6904 12.8467 26.967C12.8384 26.9972 12.8294 27.0258 12.8218 27.056C12.8143 27.0861 12.8045 27.1314 12.7954 27.1676C12.7316 27.4188 12.6728 27.6724 12.619 27.9282C12.613 27.9629 12.604 27.9968 12.5965 28.0322C12.5852 28.0888 12.5753 28.1445 12.564 28.2011C12.5527 28.2576 12.5452 28.3074 12.5354 28.3609C12.503 28.535 12.4721 28.7114 12.4442 28.8886C12.4329 28.9587 12.423 29.0288 12.4117 29.0989C12.3959 29.2128 12.3778 29.3251 12.3642 29.4419C12.3582 29.4856 12.3544 29.5294 12.3476 29.5723C12.3341 29.6884 12.319 29.8053 12.3077 29.9229L12.3002 29.9877C12.2753 30.2267 12.2565 30.4672 12.2399 30.7084C12.2399 30.7348 12.2399 30.7612 12.2361 30.7883V30.8735C12.2311 30.9459 12.2273 31.0185 12.2248 31.0913C12.2112 31.3929 12.2022 31.6944 12.2022 31.996C12.2011 33.0054 12.2768 34.0134 12.4284 35.0114C12.4789 35.3378 12.5376 35.6634 12.6032 35.9846C12.993 37.8886 13.6639 39.724 14.5941 41.4304C14.8997 41.9923 15.2309 42.5365 15.5877 43.0632C16.121 43.8523 16.71 44.6023 17.3502 45.3074C17.7769 45.7768 18.2253 46.2246 18.6952 46.6508C19.6357 47.5066 20.6564 48.27 21.743 48.9304C22.2873 49.2621 22.8482 49.5674 23.4257 49.8464C24.8864 50.5512 26.4286 51.0728 28.0174 51.3993C28.34 51.4656 28.6642 51.5229 28.9921 51.5742C29.9888 51.7257 30.9956 51.8013 32.0038 51.8003C32.3053 51.8003 32.6069 51.7913 32.9084 51.7777L33.1345 51.7664L33.2439 51.7604H33.3192C33.5454 51.7453 33.7716 51.7265 33.9977 51.7038H34.0301C34.1854 51.6873 34.3392 51.6677 34.493 51.6488C34.533 51.6435 34.5684 51.6398 34.6106 51.6337C34.7079 51.6209 34.8044 51.6058 34.9024 51.5923C34.9778 51.581 35.0577 51.5682 35.1339 51.5561C35.3351 51.5252 35.5356 51.4882 35.7369 51.4513L35.8741 51.4249L35.9314 51.4136L36.003 51.4008C36.2819 51.3435 36.5586 51.2772 36.8323 51.2078C36.8926 51.1927 36.9536 51.1792 37.0139 51.1626C37.0441 51.155 37.0742 51.1452 37.1036 51.1377C37.3353 51.0764 37.5655 51.0106 37.7942 50.9402C37.8319 50.9289 37.8696 50.9191 37.908 50.9063C37.9947 50.8799 38.0799 50.8497 38.1659 50.8211L38.297 50.7774C38.4282 50.7336 38.5586 50.6884 38.689 50.6424C38.7727 50.6123 38.8556 50.5814 38.9378 50.5497C39.0742 50.4999 39.2077 50.4472 39.3434 50.3937L39.4497 50.3499C39.4957 50.3311 39.5424 50.3137 39.5869 50.2934L39.7376 50.2346C39.9841 50.1298 40.2269 50.0182 40.4681 49.9029C40.5533 49.8629 40.6369 49.8215 40.7206 49.78C40.9159 49.6835 41.1112 49.5833 41.3019 49.4785C41.3592 49.4483 41.4172 49.4197 41.4737 49.3888C41.516 49.3662 41.5575 49.3413 41.6005 49.3172L41.6155 49.3096C41.7969 49.2091 41.9766 49.1048 42.1545 48.9968C42.2382 48.947 42.3211 48.8965 42.4033 48.846C42.5812 48.7359 42.7568 48.6198 42.9309 48.5068C42.9913 48.4668 43.0509 48.4314 43.1097 48.3892C43.3238 48.2437 43.5341 48.0929 43.7429 47.9369C43.8183 47.8796 43.8997 47.8193 43.9774 47.7605C44.1409 47.6353 44.3007 47.5087 44.4613 47.3835C44.5186 47.336 44.5775 47.2908 44.6355 47.2433C44.8345 47.0782 45.0297 46.9079 45.222 46.7352C45.2936 46.6711 45.3637 46.6063 45.4338 46.5415C45.5846 46.4013 45.7353 46.2588 45.8861 46.1133C45.9374 46.062 45.9909 46.0123 46.0422 45.9625C46.2276 45.7771 46.4062 45.5856 46.5826 45.3956C46.6437 45.3293 46.7056 45.2615 46.7651 45.1929C46.8993 45.0305 47.036 44.8682 47.1752 44.7059ZM48.9694 31.1253C48.9692 33.6412 48.3789 36.122 47.2457 38.3683C46.1125 40.6146 44.4682 42.5638 42.4448 44.0591C39.58 44.4679 36.6609 44.2606 33.8826 43.4511C31.1043 42.6416 28.5308 41.2485 26.334 39.3648C27.0451 37.7499 28.2044 36.3728 29.6744 35.3966C32.3362 33.4826 34.7335 33.1184 37.8161 28.7959C39.2477 26.7417 39.8653 24.229 39.5493 21.7452C39.2332 19.2614 38.006 16.9835 36.1055 15.3532C39.7359 16.1031 42.9971 18.0808 45.34 20.9535C47.683 23.8261 48.9647 27.4183 48.9694 31.1253Z" fill="white"/>
<path d="M51.8022 32.0009C51.802 35.9175 50.6404 39.7462 48.4643 43.0026C46.2881 46.2591 43.1952 48.7972 39.5766 50.2959C35.958 51.7946 31.9762 52.1866 28.1348 51.4223C24.2934 50.6581 20.7649 48.7719 17.9955 46.0023C15.2261 43.2328 13.3402 39.7042 12.5762 35.8627C11.8122 32.0213 12.2045 28.0397 13.7035 24.4212C15.2025 20.8028 17.7409 17.7101 20.9976 15.5342C24.2543 13.3584 28.083 12.1971 31.9997 12.1973C37.2499 12.2037 42.2833 14.2922 45.9956 18.0048C49.708 21.7173 51.7962 26.7507 51.8022 32.0009ZM16.7702 31.1249C16.7709 34.3091 17.7158 37.4215 19.4854 40.0686C21.255 42.7158 23.7699 44.7788 26.7119 45.9967C29.6539 47.2147 32.8911 47.5329 36.014 46.9112C39.1369 46.2895 42.0053 44.7558 44.2565 42.5039C46.5078 40.2521 48.0408 37.3833 48.6616 34.2602C49.2825 31.1372 48.9633 27.9002 47.7444 24.9586C46.5256 22.0169 44.4619 19.5027 41.8142 17.7339C39.1666 15.9651 36.0539 15.021 32.8697 15.0212C28.6005 15.0262 24.5077 16.7245 21.4893 19.7436C18.4709 22.7627 16.7742 26.8558 16.7702 31.1249Z" fill="url(#paint0_linear_1525_491)"/>
<path d="M19.1495 23.8685C19.1465 21.0554 19.7276 18.2723 20.8562 15.6953C18.3984 17.365 16.3487 19.567 14.8595 22.1376C13.3703 24.7082 12.48 27.5812 12.2547 30.5432C12.0294 33.5051 12.4749 36.4796 13.5581 39.2457C14.6413 42.0118 16.3343 44.4983 18.5114 46.5203C20.6884 48.5423 23.2933 50.0477 26.1326 50.9248C28.9719 51.8018 31.9724 52.0279 34.9111 51.5861C37.8498 51.1444 40.6511 50.0462 43.1067 48.3732C45.5624 46.7002 47.6091 44.4955 49.0949 41.923C45.9831 43.5626 42.5002 44.3709 38.984 44.2697C35.4677 44.1684 32.0373 43.161 29.0251 41.345C26.0128 39.5291 23.5209 36.9662 21.7908 33.9047C20.0608 30.8432 19.1512 27.3869 19.1503 23.8707L19.1495 23.8685Z" fill="url(#paint1_linear_1525_491)"/>
<path d="M29.6461 35.4017C32.3037 33.4883 34.6971 33.1243 37.7746 28.8031C42.6886 21.9016 37.1831 11.3948 27.1625 13.0656C25.2489 13.4415 23.4085 14.1245 21.7126 15.0882C19.1708 16.6314 17.0094 18.7287 15.3892 21.224C13.769 23.7193 12.7317 26.5484 12.3546 29.5007C11.9774 32.4529 12.2701 35.4524 13.2109 38.2757C14.1517 41.099 15.7164 43.6734 17.7885 45.8075C19.8605 47.9415 22.3867 49.5801 25.1787 50.6013C27.9708 51.6225 30.9569 52.0001 33.9148 51.7058C36.8727 51.4115 39.7263 50.4531 42.2631 48.9017C44.7999 47.3504 46.9545 45.2461 48.5667 42.7456C35.6605 57.9277 18.0359 43.7592 29.6461 35.4017Z" fill="url(#paint2_radial_1525_491)"/>
<path d="M90.6541 21.9607C88.7085 20.4333 87.0404 20.1479 83.9852 20.1479H68.7393V43.8517H74.0356V35.0717H84.7999C87.9373 35.0717 89.7015 34.2906 91.17 32.9751C91.9044 32.2386 92.4771 31.3587 92.8516 30.3912C93.2262 29.4236 93.3945 28.3894 93.346 27.3539C93.2975 26.3185 93.0332 25.3042 92.5699 24.3754C92.1065 23.4466 91.4542 22.6233 90.6541 21.9577V21.9607ZM87 30.3479C85.9467 30.9361 84.7396 31.1961 83.5356 31.0942H74.0349V24.1307H83.2102C84.5044 24.035 85.8003 24.2931 86.9573 24.877C87.4203 25.1614 87.8021 25.559 88.066 26.0319C88.3299 26.5047 88.4673 27.037 88.4647 27.5776C88.4636 28.1225 88.3298 28.659 88.0747 29.1414C87.8197 29.6237 87.451 30.0377 87 30.3479Z" fill="black"/>
<path d="M147.306 21.9607C145.36 20.4333 143.692 20.1479 140.637 20.1479H125.391V43.8517H130.687V35.0717H141.452C144.589 35.0717 146.353 34.2906 147.822 32.9751C148.556 32.2386 149.129 31.3587 149.503 30.3912C149.878 29.4236 150.046 28.3894 149.998 27.3539C149.949 26.3185 149.685 25.3042 149.222 24.3754C148.758 23.4466 148.106 22.6233 147.306 21.9577V21.9607ZM143.652 30.3479C142.599 30.9361 141.391 31.1961 140.187 31.0942H130.687V24.1307H139.862C141.156 24.035 142.452 24.2931 143.609 24.877C144.072 25.1614 144.454 25.559 144.718 26.0319C144.982 26.5047 145.119 27.037 145.117 27.5776C145.115 28.1225 144.982 28.659 144.727 29.1414C144.472 29.6237 144.103 30.0377 143.652 30.3479Z" fill="black"/>
<path d="M100.102 31.2118L100.1 31.2109C99.2414 30.8127 98.5089 30.1826 97.9845 29.3905C97.4595 28.5973 97.1637 27.673 97.1303 26.7206L97.1302 26.7132C97.1305 24.9331 98.061 23.1672 100.002 21.8523C101.941 20.5388 104.888 19.6738 108.939 19.6738C111.235 19.6738 115.575 19.9561 119.318 22.4416C123.061 24.9271 119.501 22.5631 119.501 22.5631L115.624 25.3501L115.543 25.309C113.529 24.2828 111.291 23.7791 109.034 23.844L109.026 23.8441C106.944 23.8256 105.353 24.2089 104.287 24.7368C103.754 25.0009 103.356 25.299 103.094 25.5969C102.832 25.8958 102.712 26.185 102.712 26.4357C102.712 26.6872 102.778 26.9275 102.952 27.163C103.128 27.4016 103.421 27.6431 103.889 27.8826L103.889 27.883L103.893 27.885L103.894 27.8853C104.351 28.136 105.135 28.3354 106.14 28.5386C106.561 28.6238 107.03 28.7112 107.526 28.8038L107.527 28.8039C108.184 28.9265 108.889 29.058 109.598 29.2055L109.599 29.2056C112.707 29.8373 115.627 30.4716 117.506 31.5751L117.509 31.577L117.512 31.5787C118.447 32.0488 119.236 32.766 119.797 33.6535C120.358 34.5433 120.668 35.5706 120.692 36.6244L120.692 36.6251L120.692 36.6285V36.6292C120.692 38.9802 119.372 40.9486 117.119 42.3222C114.869 43.6942 111.68 44.4799 107.902 44.4799C101.585 44.4799 97.7113 42.15 95.6604 40.3622L95.5244 40.2436L99.5309 36.9805L99.624 37.0511C101.946 38.8112 104.73 39.8467 107.632 40.0294L107.635 40.0296L107.639 40.0296C109.382 40.029 111.272 39.8502 112.722 39.3645C114.186 38.8742 115.13 38.0991 115.13 36.946C115.13 36.5707 115.022 36.2217 114.77 35.8924C114.521 35.566 114.133 35.2635 113.582 34.9706L113.581 34.9699C112.82 34.5777 111.5 34.2648 110.093 33.9919C109.518 33.8803 108.924 33.7748 108.354 33.6734C107.549 33.5304 106.791 33.3957 106.188 33.2625L106.186 33.262L106.184 33.2617C104.073 32.8766 102.019 32.184 100.102 31.2118Z" fill="black"/>
<defs>
<linearGradient id="paint0_linear_1525_491" x1="52.9507" y1="31.9209" x2="13.2256" y2="32.0397" gradientUnits="userSpaceOnUse">
<stop stop-color="#004C9F"/>
<stop offset="0.461" stop-color="#008DD3"/>
<stop offset="1" stop-color="#C7E0F5"/>
</linearGradient>
<linearGradient id="paint1_linear_1525_491" x1="38.5423" y1="49.0254" x2="15.996" y2="25.1402" gradientUnits="userSpaceOnUse">
<stop stop-color="#003F8A"/>
<stop offset="0.109" stop-color="#004F97"/>
<stop offset="0.461" stop-color="#0083C0"/>
<stop offset="0.49" stop-color="#0E89C3"/>
<stop offset="0.626" stop-color="#4FA6D3"/>
<stop offset="0.751" stop-color="#82BEDF"/>
<stop offset="0.858" stop-color="#A7CEE8"/>
<stop offset="0.945" stop-color="#BDD9EE"/>
<stop offset="1" stop-color="#C6DDF0"/>
</linearGradient>
<radialGradient id="paint2_radial_1525_491" cx="0" cy="0" r="1" gradientUnits="userSpaceOnUse" gradientTransform="translate(36.4759 18.4917) rotate(120.699) scale(34.5287 34.2494)">
<stop stop-color="#003288"/>
<stop offset="0.49" stop-color="#27ADF7" stop-opacity="0.8"/>
<stop offset="1" stop-color="#00A0E1" stop-opacity="0.502"/>
</radialGradient>
</defs>
</svg>
